<svg width="2180" height="2180" viewBox="0 0 2180 2180" fill="none" xmlns="http://www.w3.org/2000/svg">
<path d="M1376.75 664.592L1538.72 502.62C1553.16 488.184 1553.17 464.785 1538.76 450.33L1160.46 70.9999C1121.39 31.819 1057.92 31.8188 1018.85 70.9994L640.544 450.331C626.128 464.786 626.143 488.186 640.579 502.621L802.551 664.593C806.964 669.006 809.17 674.792 809.164 680.578C809.17 686.365 806.964 692.151 802.551 696.563C798.224 700.891 792.326 703.351 786.209 703.182C762.264 702.525 738.098 711.343 719.816 729.625C684.176 765.266 684.514 823.268 720.812 858.498C755.489 892.147 811.169 892.414 846.138 859.058C865.468 840.626 874.82 815.81 874.17 791.208C874.079 788.136 874.651 785.116 875.784 782.33C876.911 779.538 878.609 776.967 880.783 774.793C889.608 765.968 903.927 765.968 912.752 774.793L1063.49 925.529C1077.94 939.978 1101.36 939.978 1115.81 925.529L1266.55 774.793C1270.96 770.38 1273.17 764.594 1273.16 758.808C1273.17 753.022 1270.96 747.235 1266.55 742.823C1262.2 738.476 1256.28 736.042 1250.14 736.211C1225.53 736.861 1200.72 727.509 1182.29 708.179C1148.93 673.209 1149.2 617.53 1182.85 582.853C1218.08 546.556 1276.08 546.217 1311.72 581.857C1330 600.139 1338.82 624.305 1338.16 648.249C1338.08 651.302 1338.65 654.309 1339.78 657.095C1340.92 659.874 1342.62 662.431 1344.78 664.592C1353.61 673.418 1367.92 673.418 1376.75 664.592Z" fill="#39CEFD"/>
<path d="M1514.13 1376.77L1676.1 1538.74C1690.54 1553.18 1713.94 1553.19 1728.39 1538.78L2107.72 1160.48C2146.9 1121.41 2146.9 1057.94 2107.72 1018.87L1728.39 640.563C1713.94 626.147 1690.54 626.163 1676.1 640.599L1514.13 802.571C1509.71 806.984 1503.93 809.19 1498.14 809.184C1492.36 809.19 1486.57 806.983 1482.16 802.571C1477.83 798.243 1475.37 792.346 1475.54 786.228C1476.2 762.283 1467.38 738.118 1449.1 719.836C1413.46 684.195 1355.45 684.533 1320.22 720.831C1286.57 755.509 1286.31 811.188 1319.66 846.158C1338.09 865.488 1362.91 874.84 1387.51 874.189C1390.59 874.098 1393.6 874.671 1396.39 875.804C1399.18 876.93 1401.75 878.629 1403.93 880.802C1412.75 889.628 1412.75 903.947 1403.93 912.772L1253.19 1063.51C1238.74 1077.96 1238.74 1101.38 1253.19 1115.83L1403.93 1266.57C1408.34 1270.98 1414.13 1273.19 1419.91 1273.18C1425.7 1273.19 1431.49 1270.98 1435.9 1266.57C1440.25 1262.22 1442.68 1256.3 1442.51 1250.16C1441.86 1225.55 1451.21 1200.74 1470.54 1182.3C1505.51 1148.95 1561.19 1149.22 1595.87 1182.87C1632.17 1218.1 1632.5 1276.1 1596.86 1311.74C1578.58 1330.02 1554.42 1338.84 1530.47 1338.18C1527.42 1338.1 1524.41 1338.67 1521.63 1339.8C1518.85 1340.94 1516.29 1342.64 1514.13 1344.8C1505.3 1353.63 1505.3 1367.94 1514.13 1376.77Z" fill="#16B9FD"/>
<path d="M801.946 1513.92L639.974 1675.89C625.539 1690.33 625.523 1713.73 639.939 1728.18L1018.24 2107.51C1057.31 2146.69 1120.78 2146.69 1159.85 2107.51L1538.15 1728.18C1552.57 1713.73 1552.55 1690.33 1538.12 1675.89L1376.15 1513.92C1371.73 1509.51 1369.53 1503.72 1369.53 1497.94C1369.53 1492.15 1371.73 1486.36 1376.15 1481.95C1380.47 1477.62 1386.37 1475.16 1392.49 1475.33C1416.43 1475.99 1440.6 1467.17 1458.88 1448.89C1494.52 1413.25 1494.18 1355.25 1457.88 1320.02C1423.21 1286.37 1367.53 1286.1 1332.56 1319.46C1313.23 1337.89 1303.88 1362.7 1304.53 1387.31C1304.62 1390.38 1304.05 1393.4 1302.91 1396.18C1301.79 1398.98 1300.09 1401.55 1297.91 1403.72C1289.09 1412.55 1274.77 1412.55 1265.94 1403.72L1115.21 1252.98C1100.76 1238.54 1077.33 1238.54 1062.88 1252.98L912.147 1403.72C907.734 1408.13 905.528 1413.92 905.534 1419.71C905.528 1425.49 907.735 1431.28 912.147 1435.69C916.494 1440.04 922.417 1442.47 928.561 1442.3C953.163 1441.65 977.979 1451 996.411 1470.33C1029.77 1505.3 1029.5 1560.98 995.851 1595.66C960.621 1631.96 902.619 1632.3 866.978 1596.66C848.696 1578.37 839.877 1554.21 840.535 1530.26C840.62 1527.21 840.047 1524.2 838.915 1521.42C837.776 1518.64 836.077 1516.08 833.916 1513.92C825.091 1505.1 810.772 1505.1 801.946 1513.92Z" fill="#03569B"/>
<path d="M664.788 802.754L502.815 640.781C488.38 626.346 464.98 626.33 450.525 640.746L71.1954 1019.04C32.0145 1058.12 32.0143 1121.58 71.1949 1160.66L450.526 1538.96C464.981 1553.38 488.381 1553.36 502.817 1538.92L664.789 1376.95C669.202 1372.54 674.988 1370.33 680.774 1370.34C686.56 1370.33 692.346 1372.54 696.759 1376.95C701.086 1381.28 703.547 1387.18 703.377 1393.3C702.72 1417.24 711.539 1441.41 729.821 1459.69C765.461 1495.33 823.464 1494.99 858.694 1458.69C892.343 1424.01 892.61 1368.34 859.254 1333.37C840.822 1314.04 816.005 1304.68 791.404 1305.33C788.331 1305.43 785.312 1304.85 782.526 1303.72C779.733 1302.59 777.162 1300.89 774.989 1298.72C766.163 1289.9 766.163 1275.58 774.989 1266.75L925.724 1116.02C940.174 1101.57 940.174 1078.14 925.724 1063.69L774.988 912.954C770.575 908.541 764.79 906.335 759.003 906.341C753.217 906.335 747.431 908.542 743.018 912.954C738.671 917.301 736.237 923.224 736.406 929.368C737.057 953.97 727.705 978.786 708.374 997.218C673.404 1030.57 617.725 1030.31 583.049 996.658C546.752 961.428 546.412 903.426 582.053 867.785C600.335 849.503 624.501 840.684 648.445 841.342C651.498 841.427 654.504 840.855 657.29 839.722C660.069 838.583 662.627 836.884 664.788 834.723C673.613 825.898 673.613 811.579 664.788 802.754Z" fill="#16B9FD"/>
</svg>
