<svg width="512" height="512" viewBox="0 0 512 512" fill="none" xmlns="http://www.w3.org/2000/svg">
<path d="M323.491 156.159L361.55 118.1C364.942 114.708 364.945 109.21 361.558 105.814L272.67 16.6836C263.489 7.47738 248.577 7.47736 239.396 16.6835L150.507 105.814C147.119 109.211 147.123 114.709 150.515 118.101L188.573 156.159C189.61 157.196 190.129 158.555 190.127 159.915C190.129 161.274 189.61 162.634 188.573 163.671C187.556 164.688 186.171 165.266 184.733 165.226C179.107 165.071 173.429 167.143 169.133 171.439C160.759 179.814 160.838 193.442 169.367 201.72C177.515 209.627 190.598 209.689 198.815 201.852C203.357 197.521 205.554 191.69 205.401 185.909C205.38 185.187 205.515 184.478 205.781 183.823C206.045 183.167 206.444 182.563 206.955 182.052C209.029 179.979 212.393 179.979 214.467 182.052L249.885 217.47C253.28 220.865 258.785 220.865 262.18 217.47L297.598 182.052C298.635 181.015 299.153 179.656 299.152 178.296C299.153 176.937 298.635 175.577 297.598 174.54C296.576 173.519 295.185 172.947 293.741 172.987C287.961 173.139 282.129 170.942 277.799 166.4C269.961 158.183 270.024 145.1 277.93 136.953C286.208 128.424 299.837 128.344 308.211 136.719C312.507 141.014 314.579 146.692 314.424 152.319C314.404 153.036 314.539 153.742 314.805 154.397C315.073 155.05 315.472 155.651 315.98 156.159C318.053 158.232 321.418 158.232 323.491 156.159Z" fill="#F6E41B"/>
<path d="M355.771 323.498L393.829 361.557C397.221 364.948 402.719 364.952 406.116 361.565L495.246 272.677C504.452 263.496 504.452 248.584 495.246 239.403L406.116 150.514C402.719 147.126 397.221 147.13 393.829 150.522L355.771 188.58C354.734 189.617 353.374 190.135 352.015 190.134C350.655 190.135 349.296 189.617 348.259 188.58C347.242 187.563 346.664 186.178 346.704 184.74C346.858 179.114 344.786 173.436 340.49 169.14C332.116 160.766 318.487 160.845 310.209 169.374C302.303 177.522 302.24 190.605 310.078 198.822C314.409 203.364 320.24 205.561 326.021 205.408C326.742 205.387 327.452 205.521 328.107 205.788C328.763 206.052 329.367 206.451 329.877 206.962C331.951 209.036 331.951 212.4 329.877 214.474L294.46 249.892C291.064 253.287 291.064 258.792 294.46 262.187L329.878 297.605C330.915 298.642 332.274 299.16 333.634 299.159C334.993 299.16 336.353 298.642 337.389 297.605C338.411 296.583 338.983 295.192 338.943 293.748C338.79 287.967 340.988 282.136 345.53 277.805C353.746 269.968 366.829 270.031 374.977 277.937C383.506 286.215 383.585 299.844 375.211 308.218C370.915 312.514 365.237 314.586 359.611 314.431C358.894 314.411 358.187 314.546 357.533 314.812C356.88 315.079 356.279 315.479 355.771 315.986C353.697 318.06 353.697 321.425 355.771 323.498Z" fill="#F6E41B"/>
<path d="M188.431 355.724L150.373 393.782C146.981 397.174 146.978 402.672 150.365 406.069L239.252 495.199C248.434 504.405 263.346 504.405 272.527 495.199L361.416 406.069C364.803 402.672 364.8 397.174 361.408 393.782L323.35 355.724C322.313 354.687 321.794 353.328 321.796 351.968C321.794 350.608 322.313 349.249 323.35 348.212C324.366 347.195 325.752 346.617 327.19 346.657C332.816 346.811 338.494 344.739 342.79 340.444C351.164 332.069 351.084 318.441 342.556 310.163C334.408 302.256 321.325 302.194 313.108 310.031C308.566 314.362 306.369 320.193 306.521 325.974C306.543 326.696 306.408 327.405 306.142 328.06C305.878 328.716 305.478 329.32 304.968 329.831C302.894 331.904 299.53 331.904 297.456 329.831L262.038 294.413C258.643 291.018 253.138 291.018 249.743 294.413L214.325 329.831C213.288 330.868 212.77 332.227 212.771 333.587C212.77 334.946 213.288 336.306 214.325 337.343C215.346 338.364 216.738 338.936 218.182 338.896C223.962 338.743 229.793 340.941 234.124 345.483C241.962 353.7 241.899 366.782 233.993 374.93C225.715 383.459 212.086 383.539 203.712 375.164C199.416 370.869 197.344 365.19 197.498 359.564C197.518 358.847 197.384 358.141 197.118 357.486C196.85 356.833 196.451 356.232 195.943 355.724C193.87 353.651 190.505 353.651 188.431 355.724Z" fill="#F6E41B"/>
<path d="M156.203 188.623L118.145 150.565C114.753 147.173 109.255 147.169 105.859 150.556L16.7285 239.444C7.52229 248.625 7.52228 263.537 16.7284 272.718L105.859 361.607C109.255 364.995 114.754 364.991 118.146 361.599L156.204 323.541C157.241 322.504 158.6 321.986 159.96 321.987C161.319 321.986 162.679 322.504 163.716 323.541C164.732 324.558 165.311 325.943 165.271 327.381C165.116 333.007 167.188 338.685 171.484 342.981C179.858 351.355 193.487 351.276 201.765 342.747C209.672 334.599 209.734 321.516 201.897 313.299C197.566 308.757 191.735 306.56 185.954 306.713C185.232 306.734 184.523 306.6 183.868 306.334C183.212 306.069 182.608 305.67 182.097 305.159C180.023 303.085 180.023 299.721 182.097 297.647L217.515 262.229C220.91 258.834 220.91 253.33 217.515 249.934L182.097 214.516C181.06 213.479 179.701 212.961 178.341 212.963C176.981 212.961 175.622 213.48 174.585 214.516C173.564 215.538 172.992 216.929 173.031 218.373C173.184 224.154 170.987 229.985 166.445 234.316C158.228 242.153 145.145 242.09 136.997 234.184C128.469 225.906 128.389 212.278 136.763 203.903C141.059 199.607 146.737 197.535 152.363 197.69C153.081 197.71 153.787 197.575 154.442 197.309C155.095 197.042 155.696 196.642 156.203 196.135C158.277 194.061 158.277 190.696 156.203 188.623Z" fill="#F6E41B"/>
</svg>
